<svg width="79" height="79" viewBox="0 0 79 79" fill="none" xmlns="http://www.w3.org/2000/svg">
<g clip-path="url(#clip0_15_4546)">
<path d="M48.5955 54.4805C50.2636 56.8719 50.9668 59.8052 50.5642 62.693C50.5369 62.8824 50.4899 63.0684 50.424 63.248C50.3945 63.3329 50.3857 63.4235 50.3982 63.5125C50.4107 63.6014 50.4442 63.6861 50.4959 63.7596C50.5475 63.833 50.616 63.8931 50.6955 63.9349C50.775 63.9767 50.8633 63.999 50.9531 63.9999H61.0406C61.4516 63.9995 61.8483 63.8496 62.1569 63.5782C62.4654 63.3067 62.6646 62.9322 62.7172 62.5246C62.9672 60.3649 62.4436 58.1864 61.2393 56.3762C60.035 54.566 58.228 53.2413 56.1394 52.6374C56.9386 52.0986 57.5437 51.3175 57.8656 50.409C58.1875 49.5006 58.2093 48.5127 57.9276 47.5909C57.6459 46.6692 57.0757 45.8622 56.301 45.2888C55.5262 44.7155 54.5879 44.406 53.624 44.406C52.6602 44.406 51.7218 44.7155 50.9471 45.2888C50.1723 45.8622 49.6021 46.6692 49.3205 47.5909C49.0388 48.5127 49.0605 49.5006 49.3825 50.409C49.7044 51.3175 50.3095 52.0986 51.1087 52.6374C50.2795 52.8746 49.4882 53.2281 48.7582 53.6874C48.6948 53.7282 48.6401 53.7812 48.5974 53.8435C48.5548 53.9057 48.525 53.9758 48.5098 54.0497C48.4947 54.1236 48.4944 54.1998 48.5091 54.2737C48.5239 54.3477 48.5532 54.418 48.5955 54.4805Z" fill="#D81F1F"/>
<path d="M15.3376 62.5235C15.3903 62.9309 15.5894 63.3052 15.8977 63.5767C16.2061 63.8481 16.6026 63.9981 17.0134 63.9987H27.0469C27.1369 63.9979 27.2253 63.9756 27.305 63.9337C27.3846 63.8919 27.4531 63.8317 27.5048 63.7581C27.5565 63.6845 27.59 63.5996 27.6024 63.5105C27.6147 63.4214 27.6057 63.3306 27.5761 63.2457C27.5106 63.0661 27.4636 62.8803 27.4358 62.6911C27.033 59.7935 27.7432 56.851 29.4233 54.4561C29.4665 54.3933 29.4966 54.3223 29.5117 54.2476C29.5269 54.1728 29.5267 54.0958 29.5114 54.0211C29.496 53.9464 29.4657 53.8756 29.4223 53.8129C29.3788 53.7502 29.3232 53.6969 29.2587 53.6562C28.54 53.2099 27.7626 52.8657 26.9491 52.6336C27.7482 52.0948 28.3533 51.3137 28.6752 50.4052C28.9971 49.4967 29.0188 48.5089 28.7371 47.5872C28.4554 46.6654 27.8852 45.8585 27.1105 45.2851C26.3357 44.7118 25.3974 44.4023 24.4336 44.4023C23.4697 44.4023 22.5314 44.7118 21.7567 45.2851C20.9819 45.8585 20.4117 46.6654 20.13 47.5872C19.8484 48.5089 19.8701 49.4967 20.1919 50.4052C20.5138 51.3137 21.1189 52.0948 21.9181 52.6336C19.8284 53.2371 18.0205 54.5619 16.8156 56.3727C15.6108 58.1835 15.087 60.3629 15.3376 62.5235Z" fill="#D81F1F"/>
<path d="M28.4482 61.1234C28.4489 61.5953 28.4827 62.0666 28.5495 62.5338C28.607 62.9383 28.8077 63.3088 29.1152 63.5779C29.4226 63.847 29.8164 63.9969 30.225 64.0004H47.775C48.1835 63.9968 48.5771 63.8469 48.8844 63.5777C49.1917 63.3086 49.3923 62.9382 49.4497 62.5338C49.5168 62.0666 49.5507 61.5953 49.5514 61.1234C49.5483 58.7949 48.7764 56.5325 47.3555 54.6877C45.9347 52.8429 43.9445 51.5188 41.694 50.9212C42.6443 50.3348 43.3774 49.4545 43.782 48.4138C44.1867 47.373 44.2407 46.2287 43.936 45.1544C43.6313 44.0802 42.9844 43.1347 42.0936 42.4614C41.2028 41.7881 40.1166 41.4238 39 41.4238C37.8834 41.4238 36.7972 41.7881 35.9064 42.4614C35.0156 43.1347 34.3687 44.0802 34.064 45.1544C33.7593 46.2287 33.8133 47.373 34.2179 48.4138C34.6226 49.4545 35.3557 50.3348 36.306 50.9212C34.0553 51.5186 32.065 52.8426 30.6441 54.6875C29.2232 56.5323 28.4513 58.7948 28.4482 61.1234Z" fill="#D81F1F"/>
<path d="M61.3125 28.75H53.25V21.25H53.8125C54.2599 21.2495 54.6888 21.0716 55.0052 20.7552C55.3216 20.4388 55.4995 20.0099 55.5 19.5625V17.6875C55.4995 17.2401 55.3216 16.8112 55.0052 16.4948C54.6888 16.1784 54.2599 16.0005 53.8125 16H24.1875C23.7401 16.0005 23.3112 16.1784 22.9948 16.4948C22.6784 16.8112 22.5005 17.2401 22.5 17.6875V19.5625C22.5005 20.0099 22.6784 20.4388 22.9948 20.7552C23.3112 21.0716 23.7401 21.2495 24.1875 21.25H24.75V28.75H16.6875C16.2401 28.7505 15.8112 28.9284 15.4948 29.2448C15.1784 29.5612 15.0005 29.9901 15 30.4375V31.5625C15.0005 32.0099 15.1784 32.4388 15.4948 32.7552C15.8112 33.0716 16.2401 33.2495 16.6875 33.25H17.25V52.8587C17.2514 52.9632 17.2817 53.0652 17.3374 53.1535C17.3932 53.2418 17.4723 53.3129 17.566 53.3591C17.6597 53.4052 17.7643 53.4246 17.8683 53.415C17.9723 53.4053 18.0716 53.3672 18.1552 53.3046C18.5402 53.0084 18.9442 52.7379 19.3646 52.4946C19.4937 52.4193 19.5877 52.2959 19.6261 52.1514C19.6645 52.0069 19.6441 51.8531 19.5694 51.7236C19.072 50.8695 18.8087 49.8993 18.8063 48.9109C18.8039 47.9226 19.0624 46.9511 19.5556 46.0946C20.0489 45.2381 20.7594 44.5269 21.6155 44.0329C22.4716 43.539 23.4429 43.2797 24.4312 43.2812C25.4201 43.2796 26.3918 43.5391 27.2481 44.0336C28.1045 44.5281 28.815 45.24 29.3078 46.0973C29.8007 46.9546 30.0583 47.9268 30.0548 48.9156C30.0512 49.9045 29.7865 50.8748 29.2875 51.7285C29.2503 51.7934 29.2263 51.8651 29.217 51.9393C29.2076 52.0135 29.2131 52.0889 29.2331 52.161C29.253 52.2331 29.287 52.3005 29.3332 52.3594C29.3794 52.4183 29.4367 52.4674 29.502 52.504C29.6993 52.6128 29.8991 52.735 30.0971 52.8678C30.2048 52.9402 30.3341 52.9731 30.4633 52.9611C30.5924 52.9491 30.7135 52.8928 30.8059 52.8018C31.6208 51.9985 32.5496 51.3199 33.5625 50.7876C33.6315 50.7507 33.6921 50.6998 33.7404 50.6382C33.7888 50.5767 33.8239 50.5057 33.8434 50.4299C33.863 50.3541 33.8666 50.2751 33.8541 50.1978C33.8415 50.1206 33.8131 50.0467 33.7706 49.981C33.1517 49.0377 32.7994 47.9445 32.7511 46.8173C32.7028 45.69 32.9603 44.5707 33.4963 43.5779C34.0324 42.5851 34.8269 41.7558 35.7959 41.1778C36.7649 40.5997 37.8721 40.2946 39.0004 40.2946C40.1286 40.2946 41.2359 40.5997 42.2049 41.1778C43.1738 41.7558 43.9684 42.5851 44.5044 43.5779C45.0404 44.5707 45.2979 45.69 45.2496 46.8173C45.2014 47.9445 44.8491 49.0377 44.2301 49.981C44.1876 50.0467 44.1592 50.1205 44.1466 50.1977C44.1341 50.2749 44.1377 50.3539 44.1572 50.4297C44.1767 50.5054 44.2117 50.5763 44.2601 50.6379C44.3084 50.6994 44.3689 50.7503 44.4379 50.7873C45.4578 51.3243 46.3928 52.009 47.2125 52.8194C47.3043 52.9102 47.4245 52.9668 47.553 52.9795C47.6815 52.9922 47.8105 52.9603 47.9183 52.8891C48.1058 52.7654 48.3105 52.6405 48.5629 52.4954C48.6923 52.4201 48.7866 52.2967 48.8252 52.152C48.8638 52.0074 48.8435 51.8533 48.7688 51.7236C48.2674 50.8692 48.0021 49.8969 48 48.9062C48 47.4144 48.5926 45.9837 49.6475 44.9288C50.7024 43.8739 52.1332 43.2812 53.625 43.2812C55.1168 43.2812 56.5476 43.8739 57.6025 44.9288C58.6574 45.9837 59.25 47.4144 59.25 48.9062C59.2484 49.8967 58.9838 50.869 58.4831 51.7236C58.4082 51.8535 58.388 52.0079 58.4268 52.1527C58.4656 52.2976 58.5603 52.4211 58.6901 52.4961C59.092 52.7258 59.4779 52.9824 59.8451 53.2641C59.9289 53.3264 60.0282 53.3644 60.1321 53.3739C60.2361 53.3833 60.3406 53.3639 60.4342 53.3177C60.5278 53.2715 60.6068 53.2003 60.6626 53.1121C60.7183 53.0238 60.7485 52.9219 60.75 52.8175V33.25H61.3125C61.7599 33.2495 62.1888 33.0716 62.5052 32.7552C62.8216 32.4388 62.9995 32.0099 63 31.5625V30.4375C62.9995 29.9901 62.8216 29.5612 62.5052 29.2448C62.1888 28.9284 61.7599 28.7505 61.3125 28.75ZM16.6875 32.125C16.5383 32.125 16.3952 32.0657 16.2898 31.9602C16.1843 31.8548 16.125 31.7117 16.125 31.5625V30.4375C16.125 30.2883 16.1843 30.1452 16.2898 30.0398C16.3952 29.9343 16.5383 29.875 16.6875 29.875H24.75V32.125H16.6875ZM25.3125 42.0625H22.0125C21.6942 42.0625 21.389 41.9361 21.164 41.711C20.9389 41.486 20.8125 41.1808 20.8125 40.8625V37.2625C20.8125 36.9442 20.9389 36.639 21.164 36.414C21.389 36.1889 21.6942 36.0625 22.0125 36.0625H25.3125V42.0625ZM36.1875 38.6125C36.1875 38.9308 36.0611 39.236 35.836 39.461C35.611 39.6861 35.3058 39.8125 34.9875 39.8125H31.3875C31.0692 39.8125 30.764 39.6861 30.539 39.461C30.3139 39.236 30.1875 38.9308 30.1875 38.6125V35.0125C30.1875 34.6942 30.3139 34.389 30.539 34.164C30.764 33.9389 31.0692 33.8125 31.3875 33.8125H34.9875C35.3058 33.8125 35.611 33.9389 35.836 34.164C36.0611 34.389 36.1875 34.6942 36.1875 35.0125V38.6125ZM36.1875 28.8625C36.1875 29.1808 36.0611 29.486 35.836 29.711C35.611 29.9361 35.3058 30.0625 34.9875 30.0625H31.3875C31.0692 30.0625 30.764 29.9361 30.539 29.711C30.3139 29.486 30.1875 29.1808 30.1875 28.8625V25.2625C30.1875 24.9442 30.3139 24.639 30.539 24.414C30.764 24.1889 31.0692 24.0625 31.3875 24.0625H34.9875C35.3058 24.0625 35.611 24.1889 35.836 24.414C36.0611 24.639 36.1875 24.9442 36.1875 25.2625V28.8625ZM47.8125 38.6125C47.8125 38.9308 47.6861 39.236 47.461 39.461C47.236 39.6861 46.9308 39.8125 46.6125 39.8125H43.0125C42.6942 39.8125 42.389 39.6861 42.164 39.461C41.9389 39.236 41.8125 38.9308 41.8125 38.6125V35.0125C41.8125 34.6942 41.9389 34.389 42.164 34.164C42.389 33.9389 42.6942 33.8125 43.0125 33.8125H46.6125C46.9308 33.8125 47.236 33.9389 47.461 34.164C47.6861 34.389 47.8125 34.6942 47.8125 35.0125V38.6125ZM47.8125 28.8625C47.8125 29.1808 47.6861 29.486 47.461 29.711C47.236 29.9361 46.9308 30.0625 46.6125 30.0625H43.0125C42.6942 30.0625 42.389 29.9361 42.164 29.711C41.9389 29.486 41.8125 29.1808 41.8125 28.8625V25.2625C41.8125 24.9442 41.9389 24.639 42.164 24.414C42.389 24.1889 42.6942 24.0625 43.0125 24.0625H46.6125C46.9308 24.0625 47.236 24.1889 47.461 24.414C47.6861 24.639 47.8125 24.9442 47.8125 25.2625V28.8625ZM24.1875 20.125C24.0383 20.125 23.8952 20.0657 23.7898 19.9602C23.6843 19.8548 23.625 19.7117 23.625 19.5625V17.6875C23.625 17.5383 23.6843 17.3952 23.7898 17.2898C23.8952 17.1843 24.0383 17.125 24.1875 17.125H53.8125C53.9617 17.125 54.1048 17.1843 54.2102 17.2898C54.3157 17.3952 54.375 17.5383 54.375 17.6875V19.5625C54.375 19.7117 54.3157 19.8548 54.2102 19.9602C54.1048 20.0657 53.9617 20.125 53.8125 20.125H24.1875ZM57.1875 40.8625C57.1875 41.1808 57.0611 41.486 56.836 41.711C56.611 41.9361 56.3058 42.0625 55.9875 42.0625H52.6875V36.0625H55.9875C56.3058 36.0625 56.611 36.1889 56.836 36.414C57.0611 36.639 57.1875 36.9442 57.1875 37.2625V40.8625ZM61.875 31.5625C61.875 31.7117 61.8157 31.8548 61.7102 31.9602C61.6048 32.0657 61.4617 32.125 61.3125 32.125H53.25V29.875H61.3125C61.4617 29.875 61.6048 29.9343 61.7102 30.0398C61.8157 30.1452 61.875 30.2883 61.875 30.4375V31.5625Z" fill="#D81F1F"/>
</g>
<rect x="0.5" y="0.5" width="78" height="78" stroke="#D81F1F"/>
<defs>
<clipPath id="clip0_15_4546">
<rect width="48" height="48" fill="white" transform="translate(15 16)"/>
</clipPath>
</defs>
</svg>
