<svg width="55" height="55" viewBox="0 0 55 55" fill="none" xmlns="http://www.w3.org/2000/svg">
<path d="M27.4483 3.4375L33.3197 21.5075H52.3195L36.9483 32.6753L42.8195 50.7452L27.4483 39.5774L12.0771 50.7452L17.9484 32.6753L2.57715 21.5075H21.5771L27.4483 3.4375Z" fill="#DE4C3B"/>
<path d="M26.5403 28.0925L5.4596 21.5074H2.57715L4.74943 23.0857L26.0094 29.7272L12.9605 48.0263L12.0771 50.745L12.0772 50.7451L14.2679 49.1536L27.4001 30.7378L40.6091 49.1392L42.8196 50.7452L41.9446 48.0522L28.7906 29.7275L50.1537 23.081L52.3195 21.5074H49.425L28.2592 28.0925L28.3025 6.06644L27.4483 3.4375L26.5837 6.09856L26.5403 28.0925Z" fill="#F85542"/>
<path d="M27.3977 38.7129C32.1439 38.7129 35.9915 34.8653 35.9915 30.1191C35.9915 25.3729 32.1439 21.5254 27.3977 21.5254C22.6515 21.5254 18.804 25.3729 18.804 30.1191C18.804 34.8653 22.6515 38.7129 27.3977 38.7129Z" fill="#FBEFC1"/>
<path d="M24.0706 36.1107L22.6841 35.0935L23.8922 33.4461C23.9595 33.3546 24.0442 33.2773 24.1414 33.2187C24.2386 33.1601 24.3465 33.1213 24.4588 33.1045C24.6855 33.072 24.9159 33.1302 25.1 33.2665C25.5749 33.6207 26.1179 33.8729 26.695 34.0073C27.2721 34.1416 27.8707 34.1551 28.4533 34.047C29.0358 33.9389 29.5897 33.7114 30.0802 33.379C30.5706 33.0465 30.987 32.6162 31.3032 32.1151C31.6193 31.614 31.8284 31.0529 31.9173 30.4671C32.0063 29.8813 31.9731 29.2834 31.8199 28.7111C31.6666 28.1387 31.3967 27.6043 31.027 27.1412C30.6573 26.6782 30.1958 26.2967 29.6716 26.0205L30.4739 24.4998C31.8811 25.2518 32.9319 26.532 33.3951 28.0588C33.8583 29.5856 33.6961 31.2338 32.9441 32.641C32.192 34.0481 30.9118 35.0989 29.385 35.5622C27.8582 36.0254 26.21 35.8631 24.8028 35.1111L24.0706 36.1107Z" fill="#EC9E15"/>
<path d="M32.6534 34.5381L26.3381 28.8511L28.0636 26.9351L24.934 25.2734L21.4836 29.1051L24.038 31.4054L25.1881 30.1282L31.5036 35.8154L32.6534 34.5381Z" fill="#EC9E15"/>
</svg>
