<svg width="199" height="231" viewBox="0 0 199 231" fill="none" xmlns="http://www.w3.org/2000/svg">
<path d="M192.115 61.8732L27.8694 226.119L32.2059 230.456L196.452 66.2097L192.115 61.8732Z" fill="black"/>
<path d="M194.493 21.0475L124.962 90.5781L129.299 94.9146L198.829 25.3841L194.493 21.0475Z" fill="black"/>
<path d="M186.651 118.032L105.031 199.652L105.646 200.268L187.266 118.647L186.651 118.032Z" fill="black"/>
<path fill-rule="evenodd" clip-rule="evenodd" d="M186.657 123.068L105.036 204.689L105.648 205.301L187.269 123.68L186.657 123.068Z" fill="black"/>
<path d="M186.659 128.098L105.038 209.719L105.653 210.334L187.274 128.713L186.659 128.098Z" fill="black"/>
<path d="M108.608 167.442C119.882 167.291 128.898 158.029 128.746 146.756C128.595 135.483 119.333 126.467 108.06 126.618C96.7865 126.77 87.7705 136.031 87.922 147.305C88.0735 158.578 97.3351 167.594 108.608 167.442Z" fill="#FBEFC1"/>
<path fill-rule="evenodd" clip-rule="evenodd" d="M167.406 156.651H112.667L167.406 101.912V156.651Z" fill="#D81F1F"/>
</svg>
