<svg width="135" height="40" viewBox="0 0 135 40" fill="none" xmlns="http://www.w3.org/2000/svg">
<g clip-path="url(#clip0_15_4619)">
<path d="M5.55724 -0.000559296H18.2717C19.8252 -0.000559296 21.2947 0.653371 22.6801 1.96123C24.0655 3.26909 24.7593 4.85275 24.7615 6.71219C24.7683 7.04378 24.7059 7.37315 24.5781 7.67924C24.4504 7.98532 24.2602 8.26138 24.0197 8.48976C23.8088 8.7149 23.5548 8.89531 23.2727 9.02024C22.9907 9.14517 22.6864 9.21207 22.3779 9.21695C21.5441 9.21695 20.9725 9.02788 20.6634 8.64974C20.3542 8.27161 20.0584 7.57135 19.7762 6.54898C19.495 5.52337 18.8685 5.01003 17.8968 5.00896H5.81418C5.23135 5.00896 4.93994 5.19695 4.93994 5.57293C4.92539 5.80886 5.04336 6.08358 5.29545 6.39223L23.4525 29.5281C24.3262 30.6507 24.7636 31.8513 24.7647 33.1301C24.7647 34.5834 24.2363 35.8622 23.1794 36.9664C22.1226 38.0707 20.9456 38.6228 19.6485 38.6228H6.48481C4.74171 38.6228 3.22593 37.9592 1.93746 36.6319C0.64899 35.3047 0.00260028 33.8465 -0.00170898 32.2575C-0.00170898 30.4379 0.850447 29.5276 2.55476 29.5265C2.86984 29.522 3.18242 29.5829 3.47279 29.7053C3.76317 29.8276 4.02502 30.0089 4.24184 30.2375C4.46431 30.4552 4.64064 30.7155 4.76031 31.0029C4.87997 31.2903 4.94051 31.5988 4.93832 31.9101C4.93216 32.1534 4.97684 32.3954 5.0695 32.6205C5.16216 32.8456 5.30076 33.0489 5.47644 33.2174C5.65503 33.3907 5.86666 33.5264 6.09874 33.6164C6.33082 33.7063 6.57861 33.7487 6.82739 33.741H18.9763C19.4977 33.741 19.7589 33.5336 19.76 33.1188C19.7751 32.9217 19.6566 32.668 19.4045 32.3577L1.28137 9.21049C0.456539 8.19076 0.00446176 6.92004 -9.32825e-05 5.60848C-0.00599454 4.87549 0.135926 4.14882 0.417186 3.47191C0.698447 2.79499 1.11328 2.18172 1.63689 1.66874C2.13862 1.13353 2.74633 0.708696 3.42129 0.421292C4.09626 0.133889 4.82369 -0.00977933 5.55724 -0.000559296Z" fill="black"/>
<path d="M53.9945 4.93951H36.7245V16.8266H44.158C44.8022 16.8366 45.4173 17.0968 45.873 17.5523C46.3287 18.0077 46.5893 18.6225 46.5998 19.2667C46.6074 19.5958 46.5481 19.923 46.4256 20.2286C46.3031 20.5341 46.1199 20.8116 45.8871 21.0443C45.665 21.2786 45.3966 21.4642 45.0989 21.5894C44.8013 21.7146 44.4809 21.7766 44.158 21.7715H36.7245V33.7458H54.0462C54.3651 33.7431 54.6812 33.8047 54.9758 33.9268C55.2704 34.049 55.5373 34.2293 55.7607 34.4569C55.9945 34.6794 56.1797 34.9479 56.3045 35.2454C56.4294 35.543 56.4913 35.8633 56.4863 36.186C56.4911 36.51 56.4278 36.8314 56.3002 37.1293C56.1727 37.4272 55.9839 37.6949 55.7462 37.9151C55.5155 38.143 55.2419 38.3229 54.9412 38.4444C54.6405 38.5659 54.3187 38.6265 53.9945 38.6229H31.8556V0.00109863H53.9945C54.6547 0.00865461 55.2858 0.274293 55.7527 0.741186C56.2196 1.20808 56.4852 1.83915 56.4927 2.49939C56.4947 2.82083 56.4299 3.13917 56.3025 3.43429C56.1751 3.7294 55.9879 3.99488 55.7526 4.21394C55.5236 4.44718 55.2498 4.63169 54.9477 4.75638C54.6455 4.88107 54.3213 4.94336 53.9945 4.93951V4.93951Z" fill="black"/>
<path d="M63.6904 36.1816V0H80.9474C82.9437 0 84.6631 0.726111 86.1056 2.17833C86.8011 2.85304 87.3519 3.66242 87.7242 4.55705C88.0965 5.45169 88.2825 6.41282 88.271 7.38177V10.1709C88.286 11.141 88.103 12.1039 87.7332 13.0008C87.3633 13.8977 86.8145 14.7097 86.1201 15.3873C85.4531 16.084 84.6497 16.6358 83.76 17.0084C82.8704 17.3809 81.9135 17.5662 80.949 17.5527H77.8383L87.8072 34.6998C88.0999 35.1502 88.2605 35.6737 88.271 36.2107C88.2734 36.5318 88.207 36.8496 88.0763 37.1429C87.9456 37.4361 87.7535 37.6979 87.5131 37.9107C87.0564 38.3658 86.4384 38.622 85.7937 38.6234C84.8241 38.6234 84.0872 38.1898 83.5831 37.3225L72.1517 17.5527H68.624V36.1816C68.6293 36.5057 68.5661 36.8272 68.4385 37.1252C68.311 37.4232 68.122 37.6908 67.8839 37.9107C67.6528 38.1403 67.3783 38.3215 67.0765 38.4439C66.7746 38.5662 66.4514 38.6273 66.1257 38.6234C65.8053 38.6236 65.488 38.5605 65.192 38.4378C64.896 38.3151 64.6272 38.1352 64.401 37.9083C64.1747 37.6814 63.9954 37.4121 63.8735 37.1158C63.7516 36.8195 63.6894 36.502 63.6904 36.1816ZM68.5723 12.6708H80.9539C81.2739 12.6711 81.5908 12.6082 81.8864 12.4857C82.1821 12.3633 82.4507 12.1838 82.6769 11.9575C82.9031 11.7311 83.0825 11.4624 83.2047 11.1666C83.3269 10.8709 83.3896 10.554 83.3892 10.234V7.38177C83.3902 7.06081 83.3278 6.74282 83.2055 6.44609C83.0831 6.14937 82.9033 5.87977 82.6764 5.65282C82.4494 5.42587 82.1798 5.24605 81.8831 5.12372C81.5864 5.00139 81.2684 4.93896 80.9474 4.94003H68.5658L68.5723 12.6708Z" fill="black"/>
<path d="M95.4101 36.1816V0H112.732C114.726 0 116.445 0.726111 117.89 2.17833C118.585 2.85304 119.136 3.66241 119.508 4.55705C119.881 5.45169 120.067 6.41282 120.055 7.38176V16.5363C120.05 18.477 119.277 20.3368 117.905 21.7092C116.532 23.0815 114.672 23.8547 112.732 23.8598H100.35V36.1816C100.351 36.5026 100.289 36.8206 100.166 37.1173C100.044 37.414 99.8643 37.6836 99.6374 37.9106C99.4104 38.1375 99.1408 38.3173 98.8441 38.4397C98.5474 38.562 98.2294 38.6244 97.9084 38.6234C97.5794 38.6307 97.2522 38.5713 96.9467 38.4489C96.6412 38.3264 96.3637 38.1433 96.1308 37.9107C95.8974 37.6882 95.7127 37.4196 95.5887 37.122C95.4646 36.8243 95.4038 36.5041 95.4101 36.1816V36.1816ZM100.35 18.9764H112.732C113.051 18.9795 113.367 18.9181 113.662 18.7959C113.956 18.6737 114.223 18.4932 114.446 18.2653C114.68 18.043 114.866 17.7745 114.99 17.4769C115.115 17.1793 115.177 16.859 115.172 16.5363V7.38176C115.177 7.05903 115.115 6.73871 114.991 6.44107C114.866 6.14344 114.68 5.87497 114.446 5.65267C114.223 5.42455 113.956 5.24384 113.662 5.12138C113.367 4.99892 113.051 4.93724 112.732 4.94003H100.35V18.9764Z" fill="black"/>
<path d="M125.708 14.5752L135 19.9354L134.476 25.5654L129.52 22.6809L119.493 39.4111L115.584 37.1762L126.7 21.1554L123.19 18.8317L125.708 14.5752Z" fill="#D81F1F"/>
<path d="M131.999 10.2335L131.117 9.3156L129.986 10.2965C129.932 10.3502 129.867 10.3908 129.795 10.4151C129.724 10.4395 129.647 10.447 129.572 10.4371H128.042C127.747 10.4414 127.455 10.3851 127.184 10.2717C126.912 10.1583 126.667 9.99014 126.463 9.77777C126.251 9.57113 126.083 9.32335 125.971 9.04964C125.858 8.77593 125.802 8.48205 125.807 8.18604V7.15666C125.806 7.03994 125.832 6.92454 125.882 6.81925C125.932 6.71396 126.006 6.62155 126.098 6.54906L127.455 5.39849L126.08 3.90048C125.903 3.71613 125.806 3.47046 125.807 3.21531V2.28774C125.811 1.69715 126.047 1.13187 126.464 0.713797C126.882 0.295722 127.446 0.0583436 128.037 0.0528469H129.532C130.123 0.0570776 130.689 0.293897 131.107 0.712106C131.525 1.13032 131.762 1.69632 131.767 2.28774V3.28479C131.763 3.42856 131.727 3.56967 131.661 3.69756C131.596 3.82545 131.502 3.93681 131.387 4.02329L129.609 5.53261L131.238 7.25847L131.993 6.61208C132.146 6.46997 132.346 6.39039 132.555 6.38908C132.65 6.38796 132.745 6.40713 132.832 6.4453C132.919 6.48348 132.997 6.53978 133.061 6.61047C133.128 6.67922 133.18 6.76041 133.215 6.84942C133.25 6.93842 133.268 7.03349 133.266 7.12919C133.268 7.22584 133.249 7.32173 133.209 7.41001C133.17 7.49828 133.112 7.57677 133.038 7.63984L132.261 8.31209L133.038 9.18794C133.174 9.33379 133.249 9.52549 133.248 9.72445C133.25 9.81981 133.232 9.91444 133.195 10.0023C133.158 10.0902 133.103 10.1695 133.033 10.2351C132.965 10.3036 132.884 10.3576 132.794 10.3937C132.704 10.4298 132.608 10.4473 132.511 10.4452C132.416 10.4476 132.321 10.43 132.233 10.3936C132.145 10.3571 132.065 10.3026 131.999 10.2335V10.2335ZM130.29 2.9923V2.26996C130.291 2.17139 130.272 2.07358 130.235 1.98228C130.198 1.89099 130.143 1.80804 130.073 1.73831C130.007 1.6649 129.926 1.60634 129.836 1.5665C129.746 1.52666 129.648 1.50646 129.549 1.50722H128.037C127.94 1.5076 127.843 1.52835 127.755 1.56815C127.666 1.60795 127.586 1.66592 127.521 1.73831C127.452 1.80864 127.396 1.89215 127.359 1.98398C127.322 2.07582 127.304 2.17413 127.305 2.27319V3.01493L128.604 4.41597L130.29 2.9923ZM127.297 7.49602V8.21836C127.295 8.31605 127.314 8.41296 127.352 8.50304C127.39 8.59312 127.446 8.67444 127.516 8.74193C127.584 8.81069 127.666 8.86514 127.755 8.90205C127.844 8.93896 127.94 8.9576 128.037 8.95686H129.241L130.083 8.21998L128.491 6.48119L127.297 7.49602Z" fill="black"/>
</g>
<defs>
<clipPath id="clip0_15_4619">
<rect width="135" height="39.412" fill="white"/>
</clipPath>
</defs>
</svg>
