<svg width="79" height="79" viewBox="0 0 79 79" fill="none" xmlns="http://www.w3.org/2000/svg">
<path d="M48.3696 21.1613C48.1169 19.427 46.6048 18.1191 44.8523 18.1191H33.1477C31.395 18.1191 29.8829 19.427 29.6304 21.1614L29.0129 25.4011H31.9468L32.5032 21.5797C32.5495 21.2619 32.8265 21.0223 33.1477 21.0223H44.8523C45.1734 21.0223 45.4505 21.262 45.4967 21.5797L46.0531 25.401H48.987L48.3696 21.1613Z" fill="#D81F1F"/>
<path d="M57.7921 46.5436H45.2241V48.2382C45.2241 48.7743 44.9286 49.2667 44.4556 49.519L39.6832 52.0641C39.4697 52.1779 39.2349 52.2349 39 52.2349C38.7652 52.2349 38.5303 52.178 38.3168 52.0641L33.5444 49.519C33.0713 49.2667 32.7759 48.7743 32.7759 48.2382V46.5436H20.2079C18.2268 46.5436 16.4101 45.8287 15 44.6445V60.0983C15 61.0806 15.7992 61.8799 16.7816 61.8799H61.2184C62.2007 61.8799 63 61.0807 63 60.0983V44.6445C61.5898 45.8287 59.7731 46.5436 57.7921 46.5436Z" fill="#D81F1F"/>
<path d="M61.2184 28.3047H16.7816C15.7992 28.3047 15 29.104 15 30.0863V38.4335C15 41.3052 17.3362 43.6414 20.2079 43.6414H32.7759V41.0987C32.7759 40.297 33.4259 39.647 34.2276 39.647H43.7725C44.5742 39.647 45.2242 40.297 45.2242 41.0987V43.6414H57.7921C60.6637 43.6414 63 41.3052 63 38.4335V30.0863C63 29.104 62.2008 28.3047 61.2184 28.3047Z" fill="#D81F1F"/>
<path d="M35.6792 42.5508V47.3687L39 49.1397L42.3208 47.3687V42.5508H35.6792Z" fill="#D81F1F"/>
<rect x="0.5" y="0.5" width="78" height="78" stroke="#D81F1F"/>
</svg>
