<svg width="18" height="18" viewBox="0 0 18 18" fill="none" xmlns="http://www.w3.org/2000/svg">
<g clip-path="url(#clip0_15_4180)">
<path d="M6.35305 14.2007C6.30206 14.2007 6.25212 14.1863 6.20904 14.159C6.16596 14.1317 6.13151 14.0928 6.10969 14.0467L2.88735 7.23962C2.8613 7.1846 2.85466 7.12237 2.86852 7.0631C2.88239 7.00382 2.91593 6.95099 2.96368 6.91323C3.01142 6.87547 3.07056 6.85501 3.13143 6.85518C3.19231 6.85535 3.25133 6.87614 3.29887 6.91417L6.3681 9.36955L14.7206 3.84437C14.7748 3.80849 14.8402 3.79345 14.9047 3.80204C14.9691 3.81063 15.0283 3.84226 15.0713 3.89109C15.1142 3.93992 15.1381 4.00265 15.1384 4.06768C15.1386 4.13272 15.1154 4.19566 15.0729 4.24488L6.55683 14.1075C6.53155 14.1367 6.50027 14.1602 6.46511 14.1763C6.42994 14.1924 6.39172 14.2007 6.35305 14.2007Z" fill="#D81F1F"/>
</g>
<rect x="0.5" y="0.5" width="17" height="17" stroke="#D81F1F"/>
<defs>
<clipPath id="clip0_15_4180">
<rect width="14" height="14" fill="white" transform="translate(2.00006 2.00006)"/>
</clipPath>
</defs>
</svg>
