<svg width="79" height="79" viewBox="0 0 79 79" fill="none" xmlns="http://www.w3.org/2000/svg">
<path d="M39.0001 43.75C39.7544 43.7557 40.5009 43.5975 41.1881 43.2864C41.8753 42.9753 42.4868 42.5188 42.9803 41.9482C43.4738 41.3777 43.8375 40.7069 44.0464 39.982C44.2553 39.2572 44.3043 38.4956 44.1901 37.75H39.3106L38.0303 39.0303C37.8897 39.1709 37.699 39.25 37.5001 39.25H33.8101C33.9911 40.4981 34.6151 41.6394 35.5679 42.4655C36.5207 43.2917 37.7389 43.7476 39.0001 43.75Z" fill="#D81F1F"/>
<path d="M49.833 57.2491H55.5V37.7904L39 24.4629L22.5 37.7904V57.2491H28.167C27.8971 56.7951 27.7531 56.2773 27.75 55.7491V54.9991C27.75 54.8002 27.829 54.6095 27.9697 54.4688C28.1103 54.3282 28.3011 54.2491 28.5 54.2491H29.25V45.9991C29.25 45.4024 29.4871 44.8301 29.909 44.4082C30.331 43.9862 30.9033 43.7491 31.5 43.7491H34.767C33.6789 42.8731 32.8894 41.6811 32.5073 40.3374C32.1253 38.9938 32.1695 37.5647 32.634 36.2472C33.0984 34.9297 33.9601 33.7888 35.1004 32.9818C36.2406 32.1748 37.6031 31.7414 39 31.7414C40.3969 31.7414 41.7594 32.1748 42.8996 32.9818C44.0399 33.7888 44.9016 34.9297 45.366 36.2472C45.8305 37.5647 45.8747 38.9938 45.4927 40.3374C45.1106 41.6811 44.3211 42.8731 43.233 43.7491H46.5C47.0967 43.7491 47.669 43.9862 48.091 44.4082C48.5129 44.8301 48.75 45.4024 48.75 45.9991V54.2491H49.5C49.6989 54.2491 49.8897 54.3282 50.0303 54.4688C50.171 54.6095 50.25 54.8002 50.25 54.9991V55.7491C50.2469 56.2773 50.1029 56.7951 49.833 57.2491Z" fill="#D81F1F"/>
<path d="M54.75 19.75H48.75V24.3393L54.75 29.1392V19.75Z" fill="#D81F1F"/>
<path d="M39.0001 36.2503H43.7363C43.2545 35.2316 42.4573 34.3954 41.4628 33.8655C40.4683 33.3357 39.3295 33.1405 38.2154 33.3088C37.1012 33.4772 36.0709 34.0002 35.2774 34.8002C34.4839 35.6003 33.9693 36.6348 33.8101 37.7503H37.1896L38.4698 36.47C38.6104 36.3294 38.8012 36.2503 39.0001 36.2503Z" fill="#D81F1F"/>
<path d="M38.5289 22.9174C38.6623 22.8098 38.8285 22.7511 38.9999 22.7511C39.1713 22.7511 39.3376 22.8098 39.4709 22.9174L58.3852 38.1942L60.4454 35.6179L38.9999 18.4609L17.5544 35.6179L19.6147 38.1942L38.5289 22.9174Z" fill="#D81F1F"/>
<path d="M30.75 57.25H47.25C47.6478 57.25 48.0294 57.092 48.3107 56.8107C48.592 56.5294 48.75 56.1478 48.75 55.75H29.25C29.25 56.1478 29.408 56.5294 29.6893 56.8107C29.9706 57.092 30.3522 57.25 30.75 57.25Z" fill="#D81F1F"/>
<path d="M39 50.5C39.4142 50.5 39.75 50.1642 39.75 49.75C39.75 49.3358 39.4142 49 39 49C38.5858 49 38.25 49.3358 38.25 49.75C38.25 50.1642 38.5858 50.5 39 50.5Z" fill="#D81F1F"/>
<path d="M47.25 58.75H30.75H17.25V61.75H60.75V58.75H47.25Z" fill="#D81F1F"/>
<path d="M30.75 46V54.25H47.25V46C47.25 45.8011 47.171 45.6103 47.0303 45.4697C46.8897 45.329 46.6989 45.25 46.5 45.25H31.5C31.3011 45.25 31.1103 45.329 30.9697 45.4697C30.829 45.6103 30.75 45.8011 30.75 46ZM39 47.5C39.445 47.5 39.88 47.632 40.25 47.8792C40.62 48.1264 40.9084 48.4778 41.0787 48.889C41.249 49.3001 41.2936 49.7525 41.2068 50.189C41.12 50.6254 40.9057 51.0263 40.591 51.341C40.2763 51.6557 39.8754 51.87 39.439 51.9568C39.0025 52.0436 38.5501 51.999 38.139 51.8287C37.7278 51.6584 37.3764 51.37 37.1292 51C36.882 50.63 36.75 50.195 36.75 49.75C36.75 49.1533 36.9871 48.581 37.409 48.159C37.831 47.7371 38.4033 47.5 39 47.5Z" fill="#D81F1F"/>
<rect x="0.5" y="0.5" width="78" height="78" stroke="#D81F1F"/>
</svg>
