<svg width="699" height="804" viewBox="0 0 699 804" fill="none" xmlns="http://www.w3.org/2000/svg">
<g clip-path="url(#clip0_15_4184)">
<path d="M300.328 110.303L624.01 207.23L698.087 332.458L352.397 624.469L709.894 871.392L760.89 1019.14V1100.58L564.962 1270.22H-70.5909L329.313 991.249L267.583 1004.51L57.1628 645.405L145.733 441.682L517.727 249.231L564.427 231.461L499.79 230.149L308.38 131.702L300.328 110.303Z" fill="#ECE5CA"/>
<path d="M280.019 607.407H165.058V1271.79H363.405L280.019 607.407Z" fill="#A81A1A"/>
<path d="M695.401 1271.79H264.9L230.099 607.407H556.373L695.401 1271.79Z" fill="#D81F1F"/>
<path d="M272.204 415.992L269.499 404.6L276.717 397.007L277.394 385.018L315.659 377.634C306.991 327.22 294.554 254.995 293.389 248.865C291.585 239.37 296.55 223.327 314.718 221.547C332.668 219.788 343.589 253.885 343.589 253.885L373.455 260.739L376.275 268.126L359.938 279.101L338.245 285.926L353.786 298.228L393.746 307.292C401.78 303.171 409.871 299.383 416.093 297.28C445.29 287.409 511.209 291.859 511.209 291.859L546.702 307.437L548.947 320.936L527.856 331.454L544.081 341.907L544.999 347.036L512.55 364.336L457.671 357.118C457.671 357.118 447.813 344.361 439.518 337.138C439.518 337.138 418.236 339.911 408.375 355.635C397.848 372.43 404.714 395.984 404.714 395.984L387.962 409.217L411.564 476.704L455.73 503.284L436.26 524.713C436.26 524.713 407.858 545.356 375.391 545.356C337.772 545.356 303.29 527.095 287.185 521.309C286.953 546.04 277.941 587.402 277.941 587.402C278.504 590.368 283.063 607.362 283.063 607.362H268.416L257.834 514.646L248.416 488.098L272.204 415.992ZM348.937 328.353C348.937 328.353 346.563 344.746 345.662 352.34C344.761 359.933 348.094 376.417 348.094 376.417C348.255 376.534 348.41 376.666 348.571 376.77L356.262 371.372L361.04 330.08C353.781 329.186 348.937 328.353 348.937 328.353Z" fill="#440000"/>
<path d="M420.439 439.817L440.72 426.763L504.19 449.556L493.336 473.431L466.686 471.057L459.361 481.44L446.405 458.003L420.439 439.817Z" fill="#440000"/>
<path d="M380.04 465.847L388.915 479.551C388.915 479.551 411.205 488.336 422.731 497.167C447.519 516.154 463.859 546.754 474.001 569.004C482.995 588.741 486.676 608.467 486.676 608.467L484.334 608.387L484.436 608.467H443.965L446.317 599.338L454.414 597.041L456.536 587.991C452.873 580.575 447.507 575 447.507 575C434.846 578.203 417.392 578.499 417.392 578.499C412.885 566.157 390.376 533.865 383.166 528.17C378.472 524.462 361.406 511.704 361.406 511.704L352.11 508.143C352.11 508.143 349.47 501.634 347.033 498.307C335.015 481.903 320.46 462.627 320.46 462.627L380.04 465.847Z" fill="#D81F1F"/>
<path d="M334.007 226.294L344.836 241.553L356.332 255.58L373.31 260.077L375.416 266.05L365.839 269.906L350.065 272.576L332.598 265.752L330.729 260.871L336.998 257.962L337.26 256.107L328.233 255.368L325.557 249.731L332.879 247.802L330.338 244.465L322.501 244.266L311.137 233.614L314.569 219.47L334.007 226.294Z" fill="#D81F1F"/>
<path d="M267.242 83.6796C287.899 97.617 293.374 126.4 279.862 144.439C273.889 152.391 261.893 158.65 251.256 158.538L255.524 168.17L268.143 216.588L300.592 255.51L282.598 282.517C282.598 282.517 264.852 267.833 248.314 237.469L242.906 232.723L237.498 164.372L234.013 160.472C228.018 160.753 225.551 157.461 225.551 157.461L223.973 149.183L227.806 138.175L227.241 119.357H214.959V104.566H242.694L252.49 115.019V119.765H235.696L236.293 135.711L242.906 139.693L247.09 149.151C253.468 147.503 262.625 146.366 269.922 136.117C280.738 120.935 269.198 92.6718 250.061 83.6025C227.527 72.9229 208.652 73.8139 208.652 73.8139L206.91 71.0115C206.91 71.0115 242.035 66.6785 267.242 83.6796Z" fill="#D81F1F"/>
<path d="M305.557 265.752C305.557 265.752 279.862 272.596 273.551 297.28C267.239 321.964 269.979 312.748 269.071 320.341C268.163 327.935 275.579 364.964 277.381 372.559C279.183 380.155 279.636 396.293 279.636 396.293L314.28 390.887L338.228 391.547L329.432 344.757C329.432 344.757 339.315 324.261 341.13 314.769C342.944 305.277 320.886 272.407 315.478 267.661C310.069 262.914 305.557 265.752 305.557 265.752Z" fill="#D81F1F"/>
<path d="M324.93 449.172L266.468 494.544L281.331 501.015L273.302 587.242L278.991 608.492L218.513 607.352C218.513 607.352 218.794 604.303 219.357 601.337C220.064 597.603 234.569 596.292 234.569 596.292L242.627 588.044H239.021L232.991 476.704C232.991 476.704 281.158 404.036 279.5 406C286.669 403.5 321.324 439.678 324.93 449.172Z" fill="#D81F1F"/>
<path d="M307.529 461.861L300.824 442.341L273.892 415.992L281.617 387.102L315.358 394.693L410.628 423.588L456.263 452.961L461.193 469.499L428.799 476.102L307.529 461.861Z" fill="#D81F1F"/>
<path d="M283.466 284.938V263.103C283.466 263.103 274.178 259.803 273.618 257.26C273.058 254.716 272.871 244.689 272.871 244.689L270.97 243.576L271.254 241.869L275.196 233.118L273.506 232.006C273.506 232.006 275.373 222.384 276.216 220.38C277.06 218.377 279.069 215.93 279.069 215.93L277.1 212.921L279.069 208.337C279.069 208.337 307.098 203.524 316.401 214.427C325.587 225.199 322.951 241.351 312.389 249.584L311.966 266.939L298.028 274.505L283.466 284.938Z" fill="#D81F1F"/>
<path d="M289.977 456.047L395.386 461.597L424.152 470.761L418.657 460.527L461.193 469.502L459.364 481.448L396.827 476.998L352.295 488.71L363.022 497.172L360.782 505.478L427.532 560.105L417.017 560.896C420.591 566.812 425.842 576.125 425.842 576.125L463.782 572.574L467.813 571.971L467.094 576.314L456.123 590.21L449.854 578.696L419.279 581.872L389.911 535.734L360.754 517.934L348.922 513.484L333.415 484.723L289.977 456.047Z" fill="#440000"/>
<path d="M467.878 322.266L461.756 323.458L470.753 327.826L472.321 325.237L467.878 322.266Z" fill="#F4F4F4"/>
<path d="M308.795 264.047C316.013 263.096 330.338 271.648 341.15 284.938L364.585 294.433C364.585 294.433 376.302 292.534 382.611 292.534C384.401 292.534 388.584 294.059 393.647 296.242L495.609 273.751L498.961 272.78L499.357 272.922L500.006 272.78L499.651 273.029L557.483 293.95L546.829 306.1L548.098 315C541.196 316.337 528.521 318.116 528.521 318.116L500.397 305.199L505.574 312.915L517.545 321.222L512.04 323.316L489.235 312.322L481.34 300.446L464.309 297.414L420.347 309.097C423.199 310.563 424.993 311.509 424.993 311.509L451.624 311.431L468.904 304.744L470.646 307.872L464.595 312.803L474.685 314.846L475.011 318.552L449.324 319.846L446.701 322.706L456.28 327.897L455.643 330.496C455.643 330.496 440.11 328.754 432.898 326.86C425.685 324.966 423.321 320.035 423.321 320.035C423.321 320.035 419.981 320.593 416.238 320.849C403.266 321.738 373.604 323.639 367.31 322.902C359.196 321.952 332.155 309.612 324.044 308.661C315.933 307.711 283.247 301.655 283.247 283.619C283.233 273.014 301.585 264.995 308.795 264.047Z" fill="#D81F1F"/>
<path d="M355.699 329.244L345.558 327.462L336.294 350.11L342.601 374.642L348.094 376.867C348.094 376.867 345.134 355.506 347.671 346.16C350.207 336.815 355.699 329.244 355.699 329.244Z" fill="#D81F1F"/>
<path d="M298.656 255.146C303.725 254.551 305.204 249.213 305.204 249.213C307.528 252.921 302.466 258.038 302.466 258.038L298.656 255.146Z" fill="#440000"/>
<path d="M314.288 319.453L299.076 334.583L294.006 330.133L313.444 306.101L307.81 305.508L310.627 301.354L336.543 303.729L368.375 317.671L426.342 319.62L424.252 322.268L364.149 325.09L331.471 312.629L324.711 321.529L314.288 319.453Z" fill="#440000"/>
<path d="M234.569 596.299L241.189 589.029L229.631 586.239L233.551 571.154L231.189 475.21L263.867 423.587L260.485 406.974L276.709 397.004L276.829 396.977L272.035 387.096L278.506 381.459L269.492 353.584L261.886 314.124L277.317 283.098L258.222 262.192L248.362 239.046L242.727 232.824L237.376 165.18L235.37 162.691L235.263 166.362H226.652V160.309L224.7 160.133L222.48 147.004L226.682 138.473V119.754H214.852L214.87 104.572H220.345L220.738 117.248L242.16 114.734L252.478 119.762H235.684L235.758 122.997L230.33 124.159V137.584L226.95 146.484L228.924 154.199L233.506 155.516L237.065 160.085L247.244 167.841L247.528 169.916L241.555 168.821L241.844 170.964C244.477 178.488 254.984 220.377 254.984 220.377L252.978 233.242L271.182 252.794L273.14 246.244L270.594 245.248L270.005 242.468L274.905 234.529L273.531 232.943L275.709 219.703L279.089 215.92L277.12 212.911L279.019 208.132L282.892 211.027L282.643 214.133L283.029 214.419L291.71 215.402L299.002 220.609L296.326 233.344L298.945 238.772L299.079 238.899L299.039 238.966L299.079 239.048L298.95 239.125L296.316 243.74H292.937L296.249 237.316L293.382 233.949C293.382 233.949 293.091 222.973 293.091 221.788L286.563 219.511L282.964 222.077L279.076 231.928L285.547 233.421L287.66 237.722L279.517 238.384L276.707 248.339L279.975 249.832L279.843 252.261L276.577 252.244L275.968 260.124L294.982 259.086L289.577 264.718L295.687 272.289L291.456 277.035L290.709 283.402L277.429 306.398L277.695 307.936L302.506 279.405L304.858 284.168L279.905 320.684L281.896 332.21L299.925 367.8L328.651 375.112L314.574 384.415L325.508 396.611L316.105 396.081L293.116 399.786L283.71 420.956L318.193 426.25L307.222 432.071L268.036 428.366L239.078 475.788L243.586 491.218L244.101 523.294L256.826 568.989L244.551 551.293L244.713 561.276L247.107 585.01L259.783 589.905L257.849 593.765L237.388 597.917L227.682 600.587L227.259 607.344H217.682L219.372 598.063L234.569 596.299Z" fill="#440000"/>
<path d="M493.501 333.462L492.602 332.803L518.799 337.845L535.701 336.364L544.076 341.897L515.94 343.348L519.342 348.201L515.161 349.789L492.435 333.116L493.501 333.462Z" fill="#D81F1F"/>
<path d="M177.94 72.6538L0.265762 14.6816L179.551 88.7565L177.94 72.6538Z" fill="#ECE5CA"/>
</g>
<defs>
<clipPath id="clip0_15_4184">
<rect width="699" height="804" fill="white" transform="matrix(-1 0 0 1 699 0)"/>
</clipPath>
</defs>
</svg>
