<svg width="210" height="243" viewBox="0 0 210 243" fill="none" xmlns="http://www.w3.org/2000/svg">
<g clip-path="url(#clip0_15_4553)">
<path d="M163.977 7.55518L11.625 161.457L18.6607 168.422L171.012 14.52L163.977 7.55518Z" fill="black"/>
<path d="M53.0386 170.882L-0.00537109 223.926L2.90428 226.835L55.9483 173.791L53.0386 170.882Z" fill="black"/>
<path fill-rule="evenodd" clip-rule="evenodd" d="M190.03 0L111.408 78.616L111.997 79.2113L190.619 0.58949L190.03 0Z" fill="black"/>
<path d="M190.029 4.84304L111.411 83.4609L112.003 84.0535L190.621 5.4356L190.029 4.84304Z" fill="black"/>
<path d="M190.026 9.6907L111.408 88.3086L112.001 88.9011L190.619 10.2833L190.026 9.6907Z" fill="black"/>
<path d="M79.9986 161.859L25.2341 216.623L25.6469 217.036L80.4113 162.271L79.9986 161.859Z" fill="black"/>
<path d="M79.9978 165.236L25.2334 220L25.6461 220.413L80.4106 165.648L79.9978 165.236Z" fill="black"/>
<path d="M79.9978 168.603L25.2334 223.367L25.6461 223.78L80.4106 169.015L79.9978 168.603Z" fill="black"/>
<path fill-rule="evenodd" clip-rule="evenodd" d="M76.1655 141.674C76.1667 146.835 74.6374 151.88 71.7712 156.172C68.9049 160.463 64.8304 163.809 60.0628 165.785C55.2953 167.761 50.0488 168.279 44.987 167.273C39.9251 166.267 35.2751 163.783 31.625 160.135C27.9749 156.486 25.4887 151.837 24.4808 146.776C23.4728 141.714 23.9884 136.468 25.9623 131.699C27.9362 126.931 31.2798 122.855 35.5703 119.987C39.8607 117.119 44.9053 115.587 50.0661 115.586C53.4928 115.585 56.886 116.259 60.0522 117.57C63.2183 118.881 66.0952 120.802 68.5188 123.224C70.9423 125.647 72.865 128.523 74.177 131.689C75.4891 134.854 76.1648 138.247 76.1655 141.674Z" fill="#FBEFC1"/>
<path fill-rule="evenodd" clip-rule="evenodd" d="M43.5242 20.0547H87.2216L43.5242 63.7521V20.0547Z" fill="#D81F1F"/>
</g>
<defs>
<clipPath id="clip0_15_4553">
<rect width="210" height="243" fill="white"/>
</clipPath>
</defs>
</svg>
