<svg width="1920" height="998" viewBox="0 0 1920 998" fill="none" xmlns="http://www.w3.org/2000/svg">
<g clip-path="url(#clip0_63_3)">
<rect width="1920" height="998" fill="#D81F1F"/>
<g clip-path="url(#clip1_63_3)">
<path d="M1992.43 -420.857H-74.1125V1645.69H1992.43V-420.857Z" fill="#EDC78F"/>
<path d="M1920 -346.742H0.00317383V1572.25H1920V-346.742Z" fill="#D81F1F"/>
<path d="M960.621 1517.85C960.066 1518.11 959.491 1518.32 958.965 1518.64L-0.357536 224.751V444.974L956.403 1520.41C955.641 1520.92 954.906 1521.48 954.202 1522.07L-0.357536 619.8V764.408L951.698 1524.63C951.079 1525.36 950.506 1526.13 949.983 1526.93L-0.357536 887.183V994.236L948.493 1529.26C948.172 1529.94 947.889 1530.64 947.645 1531.35L-0.357536 1089.54V1175.54L947.226 1532.37C947.061 1532.85 946.847 1533.35 946.71 1533.78L-0.357536 1255.55V1330.56L946.486 1534.76L946.35 1535.9L-0.357536 1402.3V1472.61L946.077 1538.06L945.95 1539.23C946.001 1540.12 946.105 1541 946.262 1541.87L-0.357536 1542.71V1571.93H574.359L946.993 1545.45C947.197 1546.06 947.441 1546.71 947.694 1547.34L775.839 1571.93H839.492L948.045 1548.29L948.337 1549.01L870.938 1571.93H890.422L948.814 1549.79C949.126 1550.33 949.477 1550.76 949.789 1551.32L905.765 1571.93H915.254L950.276 1552.08C950.935 1552.98 951.657 1553.84 952.438 1554.64L926.866 1571.93H935.449L954.445 1556.69C955.185 1557.31 956.053 1557.84 956.851 1558.4L942.609 1571.93H948.454L959.063 1559.94C959.745 1560.33 960.495 1560.57 961.245 1560.92L953.12 1571.93H955.741L962.141 1561.33C962.775 1561.66 963.425 1561.94 964.089 1562.19L959.413 1571.93H961.615L965.073 1562.46L966.291 1562.78L963.953 1571.93H965.901L967.236 1563.04C968.41 1563.35 969.6 1563.59 970.802 1563.77L970.402 1571.93H976.306L975.906 1564.14C977.036 1564.14 978.098 1563.97 979.189 1563.87L980.417 1571.9H982.365L980.271 1563.76C980.904 1563.69 981.556 1563.63 982.219 1563.53L985.288 1571.9H987.509L983.329 1563.23C983.778 1563.14 984.197 1563.01 984.606 1562.91L990.051 1571.9H992.633L985.814 1562.6C986.983 1562.25 988.113 1561.84 989.223 1561.38L998.546 1571.9H1004.2L991.834 1560.21C992.817 1559.67 993.767 1559.06 994.679 1558.4L1011.59 1571.93H1020.13L997.29 1556.51C997.972 1555.9 998.622 1555.25 999.238 1554.56L1030.03 1571.98H1041.62L1000.84 1552.83C1001.22 1552.32 1001.5 1551.8 1001.81 1551.28L1056.36 1571.91H1075.91L1002.45 1550.25L1003.13 1549.19L1107.99 1571.91H1171.86L1003.72 1548.03C1004.05 1547.27 1004.34 1546.5 1004.58 1545.71L1378.57 1571.91H1918.7V1541.14L1005.17 1544.06C1005.53 1542.51 1005.72 1540.92 1005.74 1539.33C1005.74 1538.69 1005.57 1538.09 1005.52 1537.48L1918.7 1471.81V1404.35L1005.37 1536.16C1005.28 1535.4 1005.15 1534.64 1004.98 1533.89L1918.7 1333.98V1261.1L1004.5 1532.55C1004.33 1532.07 1004.16 1531.57 1003.97 1531.13L1918.68 1183.53V1099.9L1003.48 1529.84C1003.05 1529 1002.56 1528.2 1002.02 1527.42L1918.68 1006.87V902.634L1000.33 1525C999.485 1524.04 998.588 1523.12 997.64 1522.26L1918.68 782.508V641.379L995.059 1520.26C994.103 1519.56 993.107 1518.91 992.078 1518.32L1918.68 470.098V254.474L989.36 1517.07C988.59 1516.76 987.879 1516.39 987.061 1516.09L1918.68 -30.4349V-347.043H1877.76L985.492 1515.7C984.937 1515.55 984.362 1515.41 983.787 1515.29L1661.53 -347.092H1456.25L982.229 1514.84C981.498 1514.71 980.728 1514.67 979.988 1514.58L1258.6 -347.072H1065.48L976.218 1514.33H975.838C973.956 1514.34 972.077 1514.5 970.217 1514.79L873.89 -347.092H680.486L967.168 1515.46C966.535 1515.62 965.892 1515.74 965.297 1515.93L482.563 -347.092H277.245L963.875 1516.37C963.193 1516.63 962.57 1516.98 961.927 1517.26L60.4507 -347.092H-0.357536V-65.1546L960.621 1517.85Z" fill="#C51A1A"/>
</g>
</g>
<defs>
<clipPath id="clip0_63_3">
<rect width="1920" height="998" fill="white"/>
</clipPath>
<clipPath id="clip1_63_3">
<rect width="2066.55" height="2066.55" fill="white" transform="translate(-72.1125 -420.859)"/>
</clipPath>
</defs>
</svg>
