<svg width="135" height="40" viewBox="0 0 135 40" fill="none" xmlns="http://www.w3.org/2000/svg">
<g clip-path="url(#clip0_63_770)">
<path d="M5.55724 0.000417267H18.2717C19.8252 0.000417267 21.2947 0.654348 22.6801 1.96221C24.0655 3.27007 24.7593 4.85372 24.7615 6.71317C24.7683 7.04476 24.7059 7.37413 24.5781 7.68021C24.4504 7.9863 24.2602 8.26236 24.0197 8.49074C23.8088 8.71588 23.5548 8.89629 23.2727 9.02122C22.9907 9.14615 22.6864 9.21304 22.3779 9.21793C21.5441 9.21793 20.9725 9.02886 20.6634 8.65072C20.3542 8.27258 20.0584 7.57233 19.7762 6.54996C19.495 5.52435 18.8685 5.01101 17.8968 5.00993H5.81418C5.23135 5.00993 4.93994 5.19793 4.93994 5.57391C4.92539 5.80984 5.04336 6.08456 5.29545 6.39321L23.4525 29.5291C24.3262 30.6517 24.7636 31.8523 24.7647 33.1311C24.7647 34.5844 24.2363 35.8632 23.1794 36.9674C22.1226 38.0717 20.9456 38.6238 19.6485 38.6238H6.48481C4.74171 38.6238 3.22593 37.9602 1.93746 36.6329C0.64899 35.3057 0.00260028 33.8475 -0.00170898 32.2585C-0.00170898 30.4389 0.850447 29.5286 2.55476 29.5275C2.86984 29.523 3.18242 29.5838 3.47279 29.7062C3.76317 29.8286 4.02502 30.0098 4.24184 30.2385C4.46431 30.4562 4.64064 30.7165 4.76031 31.0039C4.87997 31.2912 4.94051 31.5998 4.93832 31.911C4.93216 32.1544 4.97684 32.3963 5.0695 32.6215C5.16216 32.8466 5.30076 33.0499 5.47644 33.2184C5.65503 33.3917 5.86666 33.5274 6.09874 33.6174C6.33082 33.7073 6.57861 33.7497 6.82739 33.7419H18.9763C19.4977 33.7419 19.7589 33.5345 19.76 33.1198C19.7751 32.9226 19.6566 32.6689 19.4045 32.3587L1.28137 9.21146C0.456539 8.19173 0.00446176 6.92102 -9.32825e-05 5.60946C-0.00599454 4.87646 0.135926 4.1498 0.417186 3.47288C0.698447 2.79597 1.11328 2.1827 1.63689 1.66972C2.13862 1.13451 2.74633 0.709672 3.42129 0.422269C4.09626 0.134865 4.82369 -0.00880277 5.55724 0.000417267Z" fill="white"/>
<path d="M53.9945 4.94037H36.7245V16.8275H44.158C44.8022 16.8375 45.4173 17.0977 45.873 17.5531C46.3287 18.0085 46.5893 18.6234 46.5998 19.2676C46.6074 19.5967 46.5481 19.9239 46.4256 20.2294C46.3031 20.5349 46.1199 20.8125 45.8871 21.0452C45.665 21.2795 45.3966 21.4651 45.0989 21.5903C44.8013 21.7155 44.4809 21.7775 44.158 21.7723H36.7245V33.7467H54.0462C54.3651 33.744 54.6812 33.8055 54.9758 33.9277C55.2704 34.0499 55.5373 34.2301 55.7607 34.4577C55.9945 34.6802 56.1797 34.9487 56.3045 35.2463C56.4294 35.5439 56.4913 35.8641 56.4863 36.1868C56.4911 36.5108 56.4278 36.8322 56.3002 37.1301C56.1727 37.428 55.9839 37.6958 55.7462 37.9159C55.5155 38.1438 55.2419 38.3237 54.9412 38.4452C54.6405 38.5667 54.3187 38.6274 53.9945 38.6237H31.8556V0.00195312H53.9945C54.6547 0.0095091 55.2858 0.275148 55.7527 0.742041C56.2196 1.20893 56.4852 1.84 56.4927 2.50025C56.4947 2.82168 56.4299 3.14002 56.3025 3.43514C56.1751 3.73026 55.9879 3.99574 55.7526 4.21479C55.5236 4.44803 55.2498 4.63254 54.9477 4.75723C54.6455 4.88192 54.3213 4.94422 53.9945 4.94037V4.94037Z" fill="white"/>
<path d="M63.6904 36.1816V0H80.9474C82.9437 0 84.6631 0.726111 86.1056 2.17833C86.8011 2.85304 87.3519 3.66242 87.7242 4.55705C88.0965 5.45169 88.2825 6.41282 88.271 7.38177V10.1709C88.286 11.141 88.103 12.1039 87.7332 13.0008C87.3633 13.8977 86.8145 14.7097 86.1201 15.3873C85.4531 16.084 84.6497 16.6358 83.76 17.0084C82.8704 17.3809 81.9135 17.5662 80.949 17.5527H77.8383L87.8072 34.6998C88.0999 35.1502 88.2605 35.6737 88.271 36.2107C88.2734 36.5318 88.207 36.8496 88.0763 37.1429C87.9456 37.4361 87.7535 37.6979 87.5131 37.9107C87.0564 38.3658 86.4384 38.622 85.7937 38.6234C84.8241 38.6234 84.0872 38.1898 83.5831 37.3225L72.1517 17.5527H68.624V36.1816C68.6293 36.5057 68.5661 36.8272 68.4385 37.1252C68.311 37.4232 68.122 37.6908 67.8839 37.9107C67.6528 38.1403 67.3783 38.3215 67.0765 38.4439C66.7746 38.5662 66.4514 38.6273 66.1257 38.6234C65.8053 38.6236 65.488 38.5605 65.192 38.4378C64.896 38.3151 64.6272 38.1352 64.401 37.9083C64.1747 37.6814 63.9954 37.4121 63.8735 37.1158C63.7516 36.8195 63.6894 36.502 63.6904 36.1816ZM68.5723 12.6708H80.9539C81.2739 12.6711 81.5908 12.6082 81.8864 12.4857C82.1821 12.3633 82.4507 12.1838 82.6769 11.9575C82.9031 11.7311 83.0825 11.4624 83.2047 11.1666C83.3269 10.8709 83.3896 10.554 83.3892 10.234V7.38177C83.3902 7.06081 83.3278 6.74282 83.2055 6.44609C83.0831 6.14937 82.9033 5.87977 82.6764 5.65282C82.4494 5.42587 82.1798 5.24605 81.8831 5.12372C81.5864 5.00139 81.2684 4.93896 80.9474 4.94003H68.5658L68.5723 12.6708Z" fill="white"/>
<path d="M95.4101 36.1816V0H112.732C114.726 0 116.445 0.726111 117.89 2.17833C118.585 2.85304 119.136 3.66241 119.508 4.55705C119.881 5.45169 120.067 6.41282 120.055 7.38176V16.5363C120.05 18.477 119.277 20.3368 117.905 21.7092C116.532 23.0815 114.672 23.8547 112.732 23.8598H100.35V36.1816C100.351 36.5026 100.289 36.8206 100.166 37.1173C100.044 37.414 99.8643 37.6836 99.6374 37.9106C99.4104 38.1375 99.1408 38.3173 98.8441 38.4397C98.5474 38.562 98.2294 38.6244 97.9084 38.6234C97.5794 38.6307 97.2522 38.5713 96.9467 38.4489C96.6412 38.3264 96.3637 38.1433 96.1308 37.9107C95.8974 37.6882 95.7127 37.4196 95.5887 37.122C95.4646 36.8243 95.4038 36.5041 95.4101 36.1816V36.1816ZM100.35 18.9764H112.732C113.051 18.9795 113.367 18.9181 113.662 18.7959C113.956 18.6737 114.223 18.4932 114.446 18.2653C114.68 18.043 114.866 17.7745 114.99 17.4769C115.115 17.1793 115.177 16.859 115.172 16.5363V7.38176C115.177 7.05903 115.115 6.73871 114.991 6.44107C114.866 6.14344 114.68 5.87497 114.446 5.65267C114.223 5.42455 113.956 5.24384 113.662 5.12138C113.367 4.99892 113.051 4.93724 112.732 4.94003H100.35V18.9764Z" fill="white"/>
<path d="M125.708 14.5762L135 19.9364L134.476 25.5664L129.52 22.6819L119.493 39.4121L115.584 37.1772L126.7 21.1564L123.19 18.8326L125.708 14.5762Z" fill="#D81F1F"/>
<path d="M131.999 10.2353L131.117 9.31745L129.986 10.2983C129.932 10.352 129.867 10.3926 129.795 10.417C129.723 10.4414 129.647 10.4489 129.572 10.4389H128.042C127.747 10.4433 127.455 10.387 127.184 10.2736C126.912 10.1601 126.667 9.99199 126.463 9.77961C126.251 9.57297 126.083 9.32519 125.97 9.05148C125.858 8.77777 125.802 8.48389 125.807 8.18788V7.15851C125.806 7.04178 125.831 6.92638 125.882 6.82109C125.932 6.7158 126.006 6.62339 126.098 6.5509L127.455 5.40033L126.08 3.90232C125.903 3.71797 125.805 3.47231 125.807 3.21715V2.28958C125.811 1.69899 126.047 1.13371 126.464 0.715637C126.881 0.297563 127.446 0.0601842 128.037 0.0546875H129.531C130.123 0.0589182 130.689 0.295737 131.107 0.713947C131.525 1.13216 131.762 1.69816 131.766 2.28958V3.28663C131.763 3.4304 131.727 3.57151 131.661 3.6994C131.595 3.82729 131.502 3.93865 131.387 4.02513L129.609 5.53445L131.238 7.26031L131.993 6.61392C132.146 6.47181 132.346 6.39223 132.555 6.39092C132.65 6.38981 132.745 6.40897 132.832 6.44715C132.919 6.48532 132.997 6.54162 133.061 6.61231C133.127 6.68106 133.18 6.76225 133.215 6.85126C133.25 6.94026 133.268 7.03533 133.266 7.13103C133.268 7.22768 133.249 7.32357 133.209 7.41185C133.17 7.50012 133.111 7.57861 133.038 7.64168L132.261 8.31393L133.038 9.18978C133.173 9.33563 133.249 9.52733 133.248 9.72629C133.25 9.82165 133.231 9.91628 133.194 10.0042C133.157 10.0921 133.103 10.1713 133.033 10.2369C132.965 10.3055 132.884 10.3594 132.794 10.3955C132.704 10.4316 132.608 10.4492 132.511 10.447C132.416 10.4495 132.321 10.4319 132.233 10.3954C132.145 10.359 132.065 10.3044 131.999 10.2353V10.2353ZM130.289 2.99414V2.2718C130.291 2.17323 130.272 2.07542 130.235 1.98413C130.198 1.89283 130.143 1.80988 130.073 1.74015C130.007 1.66674 129.926 1.60818 129.836 1.56834C129.746 1.52851 129.648 1.5083 129.549 1.50906H128.037C127.939 1.50944 127.843 1.53019 127.754 1.56999C127.666 1.6098 127.586 1.66776 127.521 1.74015C127.451 1.81048 127.396 1.89399 127.359 1.98582C127.322 2.07766 127.303 2.17597 127.305 2.27503V3.01677L128.604 4.41781L130.289 2.99414ZM127.297 7.49786V8.2202C127.295 8.31789 127.314 8.4148 127.352 8.50488C127.39 8.59496 127.446 8.67628 127.516 8.74377C127.584 8.81253 127.665 8.86698 127.755 8.90389C127.844 8.9408 127.94 8.95944 128.037 8.9587H129.241L130.083 8.22182L128.491 6.48303L127.297 7.49786Z" fill="white"/>
</g>
<defs>
<clipPath id="clip0_63_770">
<rect width="135" height="39.412" fill="white"/>
</clipPath>
</defs>
</svg>
