<svg width="32" height="32" viewBox="0 0 32 32" fill="none" xmlns="http://www.w3.org/2000/svg">
<g clip-path="url(#clip0_15_4634)">
<path d="M16 13.7141C13.1597 13.7141 10.8572 16.0166 10.8572 18.8569C10.8572 21.6972 13.1597 23.9998 16 23.9998C18.8404 23.9998 21.1429 21.6972 21.1429 18.8569C21.1394 16.018 18.8389 13.7175 16 13.7141ZM16 20.5712C15.0533 20.5712 14.2857 19.8037 14.2857 18.8569C14.2857 17.9101 15.0533 17.1426 16 17.1426C16.9468 17.1426 17.7143 17.9101 17.7143 18.8569C17.7143 19.8037 16.9468 20.5712 16 20.5712Z" fill="#D81F1F"/>
<path d="M16 19.4282C16.3156 19.4282 16.5714 19.1724 16.5714 18.8568C16.5714 18.5412 16.3156 18.2853 16 18.2853C15.6844 18.2853 15.4286 18.5412 15.4286 18.8568C15.4286 19.1724 15.6844 19.4282 16 19.4282Z" fill="#D81F1F"/>
<path d="M31.7903 8.51363C29.872 6.98277 24.4932 3.42792 16 3.42792C7.5069 3.42792 2.12804 6.98277 0.209756 8.51363C0.025469 8.66297 -0.0463501 8.91126 0.0297563 9.13592L1.92176 14.2462C2.00929 14.5344 2.30448 14.7062 2.59833 14.6399L8.12861 13.3633C8.38861 13.3033 8.57244 13.0713 8.57147 12.8045V10.2502C8.57349 9.70419 8.83345 9.19124 9.27261 8.86677C11.2421 7.49391 13.6002 6.78927 16 6.85649C18.3996 6.78931 20.7574 7.49374 22.7269 8.8662C23.1664 9.19073 23.4266 9.7039 23.4286 10.2502V12.8045C23.4287 13.0705 23.6123 13.3012 23.8715 13.3611L29.4018 14.6376C29.6889 14.7036 29.9791 14.5406 30.072 14.2611L31.976 9.1182C32.0444 8.89766 31.9707 8.65775 31.7903 8.51363Z" fill="#D81F1F"/>
<path d="M24.9287 14.7781L23.6144 14.4752C22.835 14.2979 22.283 13.6037 22.2858 12.8044V10.2501C22.286 10.066 22.1975 9.89305 22.0481 9.78553C20.2753 8.55798 18.1553 7.93184 16.0001 7.99925C13.8447 7.93196 11.7246 8.55809 9.95152 9.78553C9.80228 9.89318 9.71401 10.0661 9.71437 10.2501V12.8044C9.71718 13.6037 9.16515 14.2979 8.3858 14.4752L7.07152 14.7781L1.23209 24.0244C1.17427 24.1161 1.14339 24.2222 1.14294 24.3307V27.9992C1.14294 28.3148 1.39878 28.5707 1.71437 28.5707H30.2858C30.6014 28.5707 30.8572 28.3148 30.8572 27.9992V24.3307C30.8566 24.2214 30.8253 24.1145 30.7669 24.0221L24.9287 14.7781ZM16.0001 25.1421C12.5286 25.1421 9.71437 22.3279 9.71437 18.8564C9.71437 15.3849 12.5286 12.5707 16.0001 12.5707C19.4716 12.5707 22.2858 15.3849 22.2858 18.8564C22.2817 22.3262 19.4699 25.138 16.0001 25.1421Z" fill="#D81F1F"/>
</g>
<defs>
<clipPath id="clip0_15_4634">
<rect width="32" height="32" fill="white"/>
</clipPath>
</defs>
</svg>
